<mxfile host="app.diagrams.net" modified="2022-03-04T16:34:30.857Z" agent="5.0 (Windows NT 10.0; Win64; x64) AppleWebKit/537.36 (KHTML, like Gecko) Chrome/99.0.4844.51 Safari/537.36" etag="R-ZtWZYAaEwdxOrjYVZD" version="16.6.6" type="github">
  <diagram id="6xJRDM1QoWBWI83p1I_l" name="Page-1">
    <mxGraphModel dx="782" dy="513" grid="1" gridSize="10" guides="1" tooltips="1" connect="1" arrows="1" fold="1" page="1" pageScale="1" pageWidth="827" pageHeight="1169" math="0" shadow="0">
      <root>
        <mxCell id="0" />
        <mxCell id="1" parent="0" />
        <mxCell id="CC7cFBXtrCmxxU7XEx0d-4" style="edgeStyle=orthogonalEdgeStyle;rounded=0;orthogonalLoop=1;jettySize=auto;html=1;entryX=0;entryY=0.5;entryDx=0;entryDy=0;exitX=0.5;exitY=0;exitDx=0;exitDy=0;" edge="1" parent="1" source="CC7cFBXtrCmxxU7XEx0d-1" target="CC7cFBXtrCmxxU7XEx0d-3">
          <mxGeometry relative="1" as="geometry" />
        </mxCell>
        <mxCell id="CC7cFBXtrCmxxU7XEx0d-1" value="&lt;b&gt;Ready&lt;/b&gt;" style="ellipse;whiteSpace=wrap;html=1;aspect=fixed;fillColor=#d5e8d4;strokeColor=#82b366;" vertex="1" parent="1">
          <mxGeometry x="200" y="160" width="80" height="80" as="geometry" />
        </mxCell>
        <mxCell id="CC7cFBXtrCmxxU7XEx0d-2" value="&lt;b&gt;Finished&lt;/b&gt;" style="ellipse;whiteSpace=wrap;html=1;aspect=fixed;fillColor=#f8cecc;strokeColor=#b85450;" vertex="1" parent="1">
          <mxGeometry x="480" y="160" width="80" height="80" as="geometry" />
        </mxCell>
        <mxCell id="CC7cFBXtrCmxxU7XEx0d-7" style="edgeStyle=orthogonalEdgeStyle;rounded=0;orthogonalLoop=1;jettySize=auto;html=1;exitX=0.5;exitY=1;exitDx=0;exitDy=0;entryX=0.633;entryY=0.017;entryDx=0;entryDy=0;entryPerimeter=0;" edge="1" parent="1" source="CC7cFBXtrCmxxU7XEx0d-3" target="CC7cFBXtrCmxxU7XEx0d-1">
          <mxGeometry relative="1" as="geometry" />
        </mxCell>
        <mxCell id="CC7cFBXtrCmxxU7XEx0d-8" style="edgeStyle=orthogonalEdgeStyle;rounded=0;orthogonalLoop=1;jettySize=auto;html=1;exitX=1;exitY=0.5;exitDx=0;exitDy=0;entryX=0.5;entryY=0;entryDx=0;entryDy=0;" edge="1" parent="1" source="CC7cFBXtrCmxxU7XEx0d-3" target="CC7cFBXtrCmxxU7XEx0d-2">
          <mxGeometry relative="1" as="geometry" />
        </mxCell>
        <mxCell id="CC7cFBXtrCmxxU7XEx0d-3" value="&lt;b&gt;Unacked&lt;/b&gt;" style="ellipse;whiteSpace=wrap;html=1;aspect=fixed;fillColor=#ffe6cc;strokeColor=#d79b00;" vertex="1" parent="1">
          <mxGeometry x="360" y="40" width="80" height="80" as="geometry" />
        </mxCell>
        <mxCell id="CC7cFBXtrCmxxU7XEx0d-6" value="&lt;i&gt;&lt;b&gt;被消费者认领&lt;br&gt;还未确认&lt;/b&gt;&lt;/i&gt;" style="text;html=1;strokeColor=none;fillColor=none;align=center;verticalAlign=middle;whiteSpace=wrap;rounded=0;" vertex="1" parent="1">
          <mxGeometry x="250" y="50" width="90" height="30" as="geometry" />
        </mxCell>
        <mxCell id="CC7cFBXtrCmxxU7XEx0d-10" value="&lt;i&gt;&lt;b&gt;消费者断开连接&lt;/b&gt;&lt;br&gt;&lt;/i&gt;" style="text;html=1;strokeColor=none;fillColor=none;align=center;verticalAlign=middle;whiteSpace=wrap;rounded=0;" vertex="1" parent="1">
          <mxGeometry x="280" y="150" width="90" height="30" as="geometry" />
        </mxCell>
        <mxCell id="CC7cFBXtrCmxxU7XEx0d-11" value="&lt;i&gt;&lt;b&gt;消息确认(backAck)&lt;/b&gt;&lt;br&gt;&lt;/i&gt;" style="text;html=1;strokeColor=none;fillColor=none;align=center;verticalAlign=middle;whiteSpace=wrap;rounded=0;" vertex="1" parent="1">
          <mxGeometry x="430" y="50" width="140" height="30" as="geometry" />
        </mxCell>
      </root>
    </mxGraphModel>
  </diagram>
</mxfile>
